<svg width="200" height="61" viewBox="0 0 200 61" fill="none" xmlns="http://www.w3.org/2000/svg">
<path d="M109.171 25.8237C107.049 25.8237 105.364 26.6334 104.459 28.2215L104.271 26.2908H101.244V41.0825H104.833V32.8303C104.833 30.7127 105.801 29.0623 108.266 29.0623C110.576 29.0623 111.418 30.7127 111.418 32.8303V41.0825H115.007V31.7403C115.007 28.4395 113.041 25.8237 109.171 25.8237Z" fill="#010045"/>
<path d="M87.8246 32.2076C88.324 30.4326 89.7595 29.0624 92.069 29.0624C94.3161 29.0624 95.6581 30.4949 95.9702 32.2076H87.8246ZM92.069 25.8238C87.3564 25.8238 84.1731 29.3116 84.1731 33.6713C84.1731 37.8129 87.1067 41.5498 92.1314 41.5498C95.5332 41.5498 98.1236 39.8682 99.2784 37.159L96.0014 36.1002C95.3773 37.5327 93.9728 38.3112 92.1626 38.3112C89.6035 38.3112 88.1366 36.7231 87.7621 34.7923H99.4968C99.9338 29.4984 96.8752 25.8238 92.069 25.8238" fill="#010045"/>
<path d="M80.8204 19.612H78.9629L78.9612 41.083H82.5502L82.5519 21.3398C82.5519 20.3031 81.7648 19.612 80.8204 19.612Z" fill="#010045"/>
<path d="M145.186 26.2907H140.848L134.95 32.3631L134.952 21.3454C134.952 20.435 134.161 19.6763 133.309 19.6763H131.363L131.361 41.0825H134.95V36.754L137.009 34.6364L141.223 41.0825H145.374L139.444 32.1452L145.186 26.2907Z" fill="#010045"/>
<path d="M165.409 28.5333L165.191 26.2912H162.164V41.083H165.753V33.9206C165.753 30.9623 166.845 29.6855 169.373 29.6855H169.997V26.0108C167.719 26.0108 166.127 26.914 165.409 28.5333Z" fill="#010045"/>
<path d="M179.047 29.4671V26.2907H174.99V21.6079H171.401V35.1347C171.401 38.9961 172.868 41.0825 177.112 41.0825H179.047V37.8128H177.175C175.802 37.8128 174.99 37.0654 174.99 35.6018V29.4671H179.047Z" fill="#010045"/>
<path d="M152.302 38.3112C149.68 38.3112 147.87 36.4428 147.87 33.6713C147.87 30.8997 149.68 29.0625 152.302 29.0625C154.767 29.0625 156.609 30.8997 156.609 33.6713C156.609 36.4428 154.767 38.3112 152.302 38.3112ZM156.765 28.3151C155.704 26.6335 153.987 25.8238 151.771 25.8238C147.371 25.8238 144.25 28.9691 144.25 33.6713C144.25 38.3424 147.339 41.5498 151.771 41.5498C153.769 41.5498 155.329 40.8959 156.39 39.588V41.0828H159.979V26.291H156.952L156.765 28.3151Z" fill="#010045"/>
<path d="M125.462 32.3322L122.684 31.8962C121.03 31.616 120.375 31.2423 120.375 30.4327C120.375 29.6541 121.124 28.9067 122.809 28.9067C124.994 28.9067 126.149 29.9655 126.773 31.1488L129.332 29.187C128.302 27.3809 126.429 25.8238 123.246 25.8238C119.376 25.8238 116.973 27.7858 116.973 30.5572C116.973 32.8616 118.346 34.4498 121.342 34.8857L124.058 35.2906C126.055 35.602 126.336 36.2248 126.336 36.9099C126.336 37.7819 125.368 38.467 123.839 38.467C121.842 38.467 120.156 37.595 119.033 35.6954L116.193 37.6884C117.785 40.3665 120.437 41.5498 123.589 41.5498C127.647 41.5498 129.8 39.3077 129.8 36.5362C129.8 34.3875 128.645 32.8304 125.462 32.3322Z" fill="#010045"/>
<path d="M33.1877 38.7673C37.7008 38.6735 41.2973 35.5775 41.4618 30.7694C41.9084 32.763 42.7782 34.5221 43.7419 36.0232C41.0387 38.1107 38.4765 39.0488 35.7969 39.0488C34.8802 39.0488 34.034 38.9549 33.1877 38.7673Z" fill="#010045"/>
<path d="M71.3614 30.3705C71.3614 30.8162 71.0793 31.1211 70.6327 31.1211H69.5985L69.6454 30.4643C69.8336 27.8375 69.2693 26.0549 68.1646 24.4835L70.6797 25.2106C71.2203 25.3983 71.3614 25.6562 71.3614 26.3599V30.3705Z" fill="#010045"/>
<path d="M19.4839 26.3599C19.4839 25.6562 19.6249 25.3747 20.142 25.2106L22.7747 24.4835C21.576 26.1723 20.9882 28.4473 21.0822 30.4409L21.1293 31.1211H20.1891C19.766 31.1211 19.4839 30.8162 19.4839 30.3705V26.3599Z" fill="#010045"/>
<path d="M28.5806 24.2254C29.9439 22.5132 31.8714 21.6689 34.3865 21.6689C38.9467 21.6689 42.5901 24.4365 44.3531 29.057L45.2933 31.4493C47.5734 37.4301 50.535 40.4088 53.9904 41.5112C48.6076 40.7137 44.3765 37.5005 42.5901 32.2233L41.7909 29.8075C40.0749 24.8587 37.3953 22.607 33.1642 22.607C31.4482 22.607 29.7559 23.2403 28.5806 24.2254Z" fill="#010045"/>
<path d="M59.8906 20.0039C65.2499 20.7076 69.0814 24.7886 69.0814 29.6436C69.0814 33.8888 65.8846 37.3366 61.536 37.6885C64.4508 35.9059 65.5555 33.5135 65.5555 30.2535C65.5555 25.586 63.3931 21.4582 59.8906 20.0039Z" fill="#010045"/>
<path d="M50.8408 19.7458C48.7487 20.5902 47.0093 21.8098 45.4814 23.4985C43.4128 21.4111 42.073 20.6136 39.7224 19.7693L50.8408 19.7458Z" fill="#010045"/>
<path d="M45.8574 23.9913C48.7016 21.036 52.2275 19.4411 55.3303 19.4411C59.1853 19.4411 63.0167 21.9507 64.3565 26.4774C62.5936 23.4988 59.5849 22.6074 57.4223 22.6074C53.1207 22.6074 49.3598 26.1959 49.3598 30.6992C48.4196 27.2983 46.9387 25.0702 45.8574 23.9913Z" fill="#010045"/>
<path d="M21.7405 30.4409C21.7405 23.9441 26.7473 19.4409 34.0105 19.4409C40.6862 19.4409 45.9516 23.0763 48.2082 29.2448L48.8663 31.168C50.7468 36.3279 53.826 38.7907 58.3627 38.7907C61.7475 38.7907 65.673 37.6414 67.6946 35.3194C65.9786 39.1894 62.2176 41.4175 57.634 41.4175C52.3687 41.4175 48.5137 37.9463 46.2337 31.942L45.1994 29.2448C43.1308 23.8972 39.3935 20.9654 34.5277 20.9654C29.0273 20.9654 25.2664 24.8588 25.2664 30.3471C25.2664 35.9526 29.4035 39.7287 35.609 39.7287C37.6305 39.7287 39.3935 39.33 41.1564 38.4857C39.1819 40.3855 36.3846 41.4175 33.2819 41.4175C26.6297 41.4175 21.7405 36.7736 21.7405 30.4409Z" fill="#010045"/>
</svg>
