<svg width="88" height="22" viewBox="0 0 88 22" fill="none" xmlns="http://www.w3.org/2000/svg">
<g clip-path="url(#clip0)">
<path d="M18 8.685V7.455C18 7.285 18.0718 7.155 18.2153 7.065L19.5216 6.21C19.7417 6.07 19.9283 6 20.0815 6H21.2298C21.4308 6 21.5313 6.105 21.5313 6.315V15.33C21.5313 15.45 21.5074 15.535 21.4595 15.585C21.4212 15.625 21.3495 15.645 21.2442 15.645H20.0097C19.8087 15.645 19.7082 15.54 19.7082 15.33V8.025L18.3015 8.865C18.1005 8.955 18 8.895 18 8.685ZM26.1534 14.01H27.1295C27.4357 14.01 27.651 13.945 27.7755 13.815C27.8999 13.685 27.9621 13.465 27.9621 13.155V12.465C27.9621 12.145 27.8999 11.91 27.7755 11.76C27.651 11.61 27.4357 11.535 27.1295 11.535H26.1534C25.8471 11.535 25.6318 11.61 25.5074 11.76C25.383 11.91 25.3208 12.145 25.3208 12.465V13.155C25.3208 13.465 25.383 13.685 25.5074 13.815C25.6318 13.945 25.8471 14.01 26.1534 14.01ZM26.1534 10.05H27.1295C27.4357 10.05 27.651 9.975 27.7755 9.825C27.8999 9.675 27.9621 9.44 27.9621 9.12V8.49C27.9621 8.18 27.8999 7.96 27.7755 7.83C27.651 7.7 27.4357 7.635 27.1295 7.635H26.1534C25.8471 7.635 25.6318 7.7 25.5074 7.83C25.383 7.96 25.3208 8.18 25.3208 8.49V9.12C25.3208 9.44 25.383 9.675 25.5074 9.825C25.6318 9.975 25.8471 10.05 26.1534 10.05ZM27.4022 15.645H25.8806C25.115 15.645 24.5265 15.45 24.115 15.06C23.713 14.66 23.5121 14.075 23.5121 13.305V12.615C23.5121 11.695 23.8279 11.09 24.4595 10.8C23.8279 10.53 23.5121 9.92 23.5121 8.97V8.325C23.5121 7.555 23.713 6.975 24.115 6.585C24.5265 6.195 25.115 6 25.8806 6H27.4022C28.1583 6 28.7372 6.195 29.1392 6.585C29.5507 6.975 29.7564 7.555 29.7564 8.325V8.97C29.7564 9.44 29.6703 9.84 29.498 10.17C29.3258 10.5 29.1009 10.71 28.8234 10.8C29.4454 11.06 29.7564 11.67 29.7564 12.63V13.305C29.7564 14.075 29.5507 14.66 29.1392 15.06C28.7372 15.45 28.1583 15.645 27.4022 15.645ZM34.2493 13.995H35.0962C35.4025 13.995 35.6178 13.93 35.7422 13.8C35.8666 13.66 35.9288 13.43 35.9288 13.11V8.535C35.9288 8.215 35.8666 7.99 35.7422 7.86C35.6178 7.72 35.4025 7.65 35.0962 7.65H34.2493C33.9431 7.65 33.7277 7.72 33.6033 7.86C33.4789 7.99 33.4167 8.215 33.4167 8.535V13.11C33.4167 13.43 33.4789 13.66 33.6033 13.8C33.7277 13.93 33.9431 13.995 34.2493 13.995ZM35.3833 15.645H33.9478C33.1918 15.645 32.6081 15.435 32.1966 15.015C31.785 14.595 31.5793 13.99 31.5793 13.2V8.445C31.5793 7.655 31.785 7.05 32.1966 6.63C32.6081 6.21 33.1918 6 33.9478 6H35.3833C36.1298 6 36.7088 6.215 37.1203 6.645C37.5318 7.065 37.7375 7.665 37.7375 8.445V13.2C37.7375 13.98 37.5318 14.585 37.1203 15.015C36.7088 15.435 36.1298 15.645 35.3833 15.645ZM42.2325 13.995H43.0794C43.3857 13.995 43.601 13.93 43.7254 13.8C43.8498 13.66 43.912 13.43 43.912 13.11V8.535C43.912 8.215 43.8498 7.99 43.7254 7.86C43.601 7.72 43.3857 7.65 43.0794 7.65H42.2325C41.9263 7.65 41.7109 7.72 41.5865 7.86C41.4621 7.99 41.3999 8.215 41.3999 8.535V13.11C41.3999 13.43 41.4621 13.66 41.5865 13.8C41.7109 13.93 41.9263 13.995 42.2325 13.995ZM43.3665 15.645H41.931C41.175 15.645 40.5913 15.435 40.1798 15.015C39.7683 14.595 39.5625 13.99 39.5625 13.2V8.445C39.5625 7.655 39.7683 7.05 40.1798 6.63C40.5913 6.21 41.175 6 41.931 6H43.3665C44.113 6 44.692 6.215 45.1035 6.645C45.515 7.065 45.7207 7.665 45.7207 8.445V13.2C45.7207 13.98 45.515 14.585 45.1035 15.015C44.692 15.435 44.113 15.645 43.3665 15.645ZM50.388 11.625H47.6605C47.4596 11.625 47.3591 11.52 47.3591 11.31V10.425C47.3591 10.205 47.4596 10.095 47.6605 10.095H50.388C50.5889 10.095 50.6894 10.205 50.6894 10.425V11.31C50.6894 11.52 50.5889 11.625 50.388 11.625ZM51.8741 8.685V7.455C51.8741 7.285 51.9458 7.155 52.0894 7.065L53.3957 6.21C53.6158 6.07 53.8024 6 53.9555 6H55.1039C55.3049 6 55.4054 6.105 55.4054 6.315V15.33C55.4054 15.45 55.3814 15.535 55.3336 15.585C55.2953 15.625 55.2235 15.645 55.1183 15.645H53.8837C53.6828 15.645 53.5823 15.54 53.5823 15.33V8.025L52.1755 8.865C51.9746 8.955 51.8741 8.895 51.8741 8.685ZM56.9554 8.685V7.455C56.9554 7.285 57.0272 7.155 57.1707 7.065L58.477 6.21C58.6971 6.07 58.8837 6 59.0368 6H60.1852C60.3862 6 60.4867 6.105 60.4867 6.315V15.33C60.4867 15.45 60.4628 15.535 60.4149 15.585C60.3766 15.625 60.3049 15.645 60.1996 15.645H58.9651C58.7641 15.645 58.6636 15.54 58.6636 15.33V8.025L57.2569 8.865C57.0559 8.955 56.9554 8.895 56.9554 8.685ZM62.0368 8.685V7.455C62.0368 7.285 62.1086 7.155 62.2521 7.065L63.5584 6.21C63.7785 6.07 63.9652 6 64.1183 6H65.2667C65.4676 6 65.5681 6.105 65.5681 6.315V15.33C65.5681 15.45 65.5442 15.535 65.4963 15.585C65.4581 15.625 65.3863 15.645 65.281 15.645H64.0465C63.8455 15.645 63.745 15.54 63.745 15.33V8.025L62.3383 8.865C62.1373 8.955 62.0368 8.895 62.0368 8.685ZM70.3911 11.625H67.6637C67.4628 11.625 67.3623 11.52 67.3623 11.31V10.425C67.3623 10.205 67.4628 10.095 67.6637 10.095H70.3911C70.5921 10.095 70.6926 10.205 70.6926 10.425V11.31C70.6926 11.52 70.5921 11.625 70.3911 11.625ZM71.8772 8.685V7.455C71.8772 7.285 71.9489 7.155 72.0925 7.065L73.3988 6.21C73.6189 6.07 73.8055 6 73.9586 6H75.107C75.308 6 75.4084 6.105 75.4084 6.315V15.33C75.4084 15.45 75.3845 15.535 75.3367 15.585C75.2984 15.625 75.2266 15.645 75.1213 15.645H73.8868C73.6859 15.645 73.5854 15.54 73.5854 15.33V8.025L72.1786 8.865C71.9776 8.955 71.8772 8.895 71.8772 8.685ZM76.9586 8.685V7.455C76.9586 7.285 77.0304 7.155 77.1739 7.065L78.4802 6.21C78.7003 6.07 78.8869 6 79.04 6H80.1884C80.3894 6 80.4899 6.105 80.4899 6.315V15.33C80.4899 15.45 80.4659 15.535 80.4181 15.585C80.3798 15.625 80.308 15.645 80.2028 15.645H78.9683C78.7673 15.645 78.6668 15.54 78.6668 15.33V8.025L77.26 8.865C77.0591 8.955 76.9586 8.895 76.9586 8.685ZM82.04 8.685V7.455C82.04 7.285 82.1118 7.155 82.2553 7.065L83.5616 6.21C83.7817 6.07 83.9683 6 84.1215 6H85.2698C85.4708 6 85.5713 6.105 85.5713 6.315V15.33C85.5713 15.45 85.5474 15.535 85.4995 15.585C85.4612 15.625 85.3895 15.645 85.2842 15.645H84.0497C83.8487 15.645 83.7482 15.54 83.7482 15.33V8.025L82.3415 8.865C82.1405 8.955 82.04 8.895 82.04 8.685Z" fill="#4D4D4F"/>
<path d="M12.8458 13.3333C12.0484 13.3333 11.2828 13.2 10.5682 12.9533C10.3449 12.88 10.0961 12.9333 9.91746 13.1133L8.51391 14.58C6.70839 13.62 5.22824 12.08 4.30953 10.1867L5.71312 8.71333C5.89176 8.54 5.94279 8.28 5.87262 8.04667C5.63656 7.3 5.50896 6.5 5.50896 5.66667C5.50896 5.3 5.22187 5 4.87097 5H2.638C2.2871 5 2 5.3 2 5.66667C2 11.9267 6.85512 17 12.8458 17C13.1968 17 13.4839 16.7 13.4839 16.3333V14C13.4839 13.6333 13.1968 13.3333 12.8458 13.3333ZM12.2079 11H13.4839C13.4839 7.68667 10.9127 5 7.74193 5V6.33333C10.211 6.33333 12.2079 8.42 12.2079 11ZM9.65591 11H10.9319C10.9319 9.16 9.50279 7.66667 7.74193 7.66667V9C8.80101 9 9.65591 9.89333 9.65591 11Z" fill="#4D4D4F"/>
</g>
<defs>
<clipPath id="clip0">
<rect width="88" height="22" fill="white"/>
</clipPath>
</defs>
</svg>
