<svg width="104" height="35" viewBox="0 0 104 35" fill="none" xmlns="http://www.w3.org/2000/svg">
<path d="M0.601562 10.5C0.601562 7.23841 0.601562 5.60761 1.13441 4.32122C1.84486 2.60602 3.20758 1.2433 4.92278 0.532843C6.20918 0 7.83997 0 11.1016 0H92.5015C95.7632 0 97.394 0 98.6804 0.532843C100.396 1.2433 101.758 2.60602 102.469 4.32122C103.002 5.60761 103.002 7.23841 103.002 10.5V23.6333C103.002 26.8949 103.002 28.5257 102.469 29.8121C101.758 31.5273 100.396 32.89 98.6804 33.6005C97.394 34.1333 95.7632 34.1333 92.5016 34.1333H11.1016C7.83998 34.1333 6.20918 34.1333 4.92278 33.6005C3.20758 32.89 1.84486 31.5273 1.13441 29.8121C0.601562 28.5257 0.601562 26.8949 0.601562 23.6333V10.5Z" fill="#0C0D10"/>
<path d="M70.1694 16.3849V18.3399H68.944V19.622H70.1694V23.9782C70.1694 25.4657 70.8423 26.0607 72.5353 26.0607C72.8328 26.0607 73.1161 26.0253 73.364 25.9828V24.7149C73.1515 24.7361 73.0169 24.7503 72.7832 24.7503C72.0253 24.7503 71.6923 24.3961 71.6923 23.5886V19.622H73.364V18.3399H71.6923V16.3849H70.1694Z" fill="white"/>
<path d="M77.6766 26.167C79.9291 26.167 81.3104 24.6582 81.3104 22.1578C81.3104 19.6716 79.922 18.1557 77.6766 18.1557C75.4241 18.1557 74.0358 19.6716 74.0358 22.1578C74.0358 24.6582 75.417 26.167 77.6766 26.167ZM77.6766 24.8141C76.352 24.8141 75.6083 23.8436 75.6083 22.1578C75.6083 20.4861 76.352 19.5086 77.6766 19.5086C78.9941 19.5086 79.745 20.4861 79.745 22.1578C79.745 23.8366 78.9941 24.8141 77.6766 24.8141Z" fill="white"/>
<path d="M82.4921 26.0182H84.0151V21.4636C84.0151 20.3799 84.8297 19.6503 85.9842 19.6503C86.2534 19.6503 86.7067 19.6999 86.8342 19.7424V18.2407C86.6713 18.1982 86.3809 18.177 86.1542 18.177C85.1484 18.177 84.2913 18.7295 84.0717 19.4874H83.9584V18.3045H82.4921V26.0182Z" fill="white"/>
<path d="M90.6156 19.452C91.7419 19.452 92.4785 20.2382 92.5139 21.4495H88.6181C88.7031 20.2453 89.4893 19.452 90.6156 19.452ZM92.5069 23.9357C92.2235 24.5378 91.5931 24.8707 90.6723 24.8707C89.4539 24.8707 88.6677 24.0136 88.6181 22.6607V22.5757H94.0652V22.0445C94.0652 19.622 92.7689 18.1557 90.6227 18.1557C88.4481 18.1557 87.0668 19.7211 87.0668 22.1861C87.0668 24.6511 88.4198 26.167 90.6298 26.167C92.3935 26.167 93.626 25.317 93.9731 23.9357H92.5069Z" fill="white"/>
<path d="M60.1824 23.1697C60.2998 25.0638 61.8783 26.2752 64.2276 26.2752C66.7385 26.2752 68.3096 25.0051 68.3096 22.9788C68.3096 21.3856 67.4139 20.5046 65.2408 19.9981L64.0734 19.7117C62.6932 19.3887 62.1352 18.9555 62.1352 18.1993C62.1352 17.2449 63.0016 16.6209 64.301 16.6209C65.5344 16.6209 66.3861 17.2302 66.5402 18.2067H68.1407C68.0453 16.4227 66.4742 15.1672 64.3231 15.1672C62.0104 15.1672 60.4687 16.4227 60.4687 18.3095C60.4687 19.8659 61.3423 20.791 63.2585 21.2388L64.6241 21.5692C66.0263 21.8995 66.643 22.3841 66.643 23.1917C66.643 24.1314 65.6739 24.8142 64.3524 24.8142C62.9355 24.8142 61.9517 24.1755 61.8122 23.1697H60.1824Z" fill="white"/>
<path d="M44.4065 18.177C43.3582 18.177 42.4515 18.7011 41.984 19.5795H41.8707V18.3045H40.4044V28.5824H41.9273V24.8495H42.0478C42.4515 25.6641 43.3228 26.1457 44.4207 26.1457C46.3686 26.1457 47.6082 24.6086 47.6082 22.1578C47.6082 19.707 46.3686 18.177 44.4065 18.177ZM43.9744 24.7786C42.6994 24.7786 41.899 23.7728 41.899 22.1649C41.899 20.5499 42.6994 19.5441 43.9815 19.5441C45.2707 19.5441 46.0428 20.5286 46.0428 22.1578C46.0428 23.7941 45.2707 24.7786 43.9744 24.7786Z" fill="white"/>
<path d="M52.9371 18.177C51.8888 18.177 50.9821 18.7011 50.5146 19.5795H50.4013V18.3045H48.935V28.5824H50.4579V24.8495H50.5784C50.9821 25.6641 51.8533 26.1457 52.9513 26.1457C54.8992 26.1457 56.1388 24.6086 56.1388 22.1578C56.1388 19.707 54.8992 18.177 52.9371 18.177ZM52.505 24.7786C51.23 24.7786 50.4296 23.7728 50.4296 22.1649C50.4296 20.5499 51.23 19.5441 52.5121 19.5441C53.8013 19.5441 54.5734 20.5286 54.5734 22.1578C54.5734 23.7941 53.8013 24.7786 52.505 24.7786Z" fill="white"/>
<path d="M37.672 26.0182H39.4194L35.5944 15.4242H33.825L30 26.0182H31.6886L32.665 23.2064H36.7029L37.672 26.0182ZM34.6253 17.3477H34.7501L36.2845 21.8261H33.0835L34.6253 17.3477Z" fill="white"/>
<path d="M31.0234 7.43334V12.544H32.8686C34.3916 12.544 35.2734 11.6054 35.2734 9.97272C35.2734 8.3648 34.3845 7.43334 32.8686 7.43334H31.0234ZM31.8168 8.15584H32.7801C33.8391 8.15584 34.4659 8.82876 34.4659 9.98334C34.4659 11.1556 33.8497 11.8215 32.7801 11.8215H31.8168V8.15584Z" fill="white"/>
<path d="M37.9743 12.6183C39.1006 12.6183 39.7912 11.864 39.7912 10.6138C39.7912 9.37063 39.097 8.61272 37.9743 8.61272C36.8481 8.61272 36.1539 9.37063 36.1539 10.6138C36.1539 11.864 36.8445 12.6183 37.9743 12.6183ZM37.9743 11.9419C37.312 11.9419 36.9401 11.4567 36.9401 10.6138C36.9401 9.77793 37.312 9.28918 37.9743 9.28918C38.6331 9.28918 39.0085 9.77793 39.0085 10.6138C39.0085 11.4531 38.6331 11.9419 37.9743 11.9419Z" fill="white"/>
<path d="M45.6725 8.68709H44.911L44.2239 11.6302H44.1637L43.3704 8.68709H42.6408L41.8475 11.6302H41.7908L41.1002 8.68709H40.3281L41.3906 12.544H42.1733L42.9666 9.70355H43.0269L43.8237 12.544H44.6135L45.6725 8.68709Z" fill="white"/>
<path d="M46.5494 12.544H47.3109V10.2879C47.3109 9.68584 47.6686 9.31043 48.2317 9.31043C48.7948 9.31043 49.064 9.61855 49.064 10.2383V12.544H49.8254V10.0471C49.8254 9.1298 49.3509 8.61272 48.4902 8.61272C47.9094 8.61272 47.5269 8.87126 47.3392 9.2998H47.2825V8.68709H46.5494V12.544Z" fill="white"/>
<path d="M51.0246 12.544H51.7861V7.18188H51.0246V12.544Z" fill="white"/>
<path d="M54.6499 12.6183C55.7761 12.6183 56.4668 11.864 56.4668 10.6138C56.4668 9.37063 55.7726 8.61272 54.6499 8.61272C53.5236 8.61272 52.8295 9.37063 52.8295 10.6138C52.8295 11.864 53.5201 12.6183 54.6499 12.6183ZM54.6499 11.9419C53.9876 11.9419 53.6157 11.4567 53.6157 10.6138C53.6157 9.77793 53.9876 9.28918 54.6499 9.28918C55.3086 9.28918 55.6841 9.77793 55.6841 10.6138C55.6841 11.4531 55.3086 11.9419 54.6499 11.9419Z" fill="white"/>
<path d="M58.7356 11.9667C58.3212 11.9667 58.0201 11.7648 58.0201 11.4177C58.0201 11.0777 58.261 10.8971 58.7922 10.8617L59.7343 10.8015V11.1238C59.7343 11.6019 59.3093 11.9667 58.7356 11.9667ZM58.5408 12.6077C59.0472 12.6077 59.4687 12.3881 59.6989 12.0021H59.7591V12.544H60.4922V9.90897C60.4922 9.09438 59.9468 8.61272 58.9799 8.61272C58.1051 8.61272 57.4818 9.03772 57.4039 9.70001H58.1406C58.2256 9.4273 58.5195 9.27147 58.9445 9.27147C59.4651 9.27147 59.7343 9.50168 59.7343 9.90897V10.2419L58.6895 10.3021C57.7722 10.3588 57.2551 10.759 57.2551 11.4531C57.2551 12.1579 57.797 12.6077 58.5408 12.6077Z" fill="white"/>
<path d="M63.0762 12.6077C63.6075 12.6077 64.0573 12.3563 64.2875 11.9348H64.3477V12.544H65.0773V7.18188H64.3158V9.2998H64.2591C64.0502 8.8748 63.6039 8.62334 63.0762 8.62334C62.1023 8.62334 61.4754 9.39543 61.4754 10.6138C61.4754 11.8356 62.0952 12.6077 63.0762 12.6077ZM63.2923 9.30688C63.9298 9.30688 64.33 9.81334 64.33 10.6173C64.33 11.4248 63.9333 11.9242 63.2923 11.9242C62.6477 11.9242 62.2616 11.4319 62.2616 10.6138C62.2616 9.80272 62.6512 9.30688 63.2923 9.30688Z" fill="white"/>
<path d="M70.0151 12.6183C71.1413 12.6183 71.8319 11.864 71.8319 10.6138C71.8319 9.37063 71.1378 8.61272 70.0151 8.61272C68.8888 8.61272 68.1946 9.37063 68.1946 10.6138C68.1946 11.864 68.8853 12.6183 70.0151 12.6183ZM70.0151 11.9419C69.3528 11.9419 68.9809 11.4567 68.9809 10.6138C68.9809 9.77793 69.3528 9.28918 70.0151 9.28918C70.6738 9.28918 71.0492 9.77793 71.0492 10.6138C71.0492 11.4531 70.6738 11.9419 70.0151 11.9419Z" fill="white"/>
<path d="M72.8399 12.544H73.6014V10.2879C73.6014 9.68584 73.9591 9.31043 74.5222 9.31043C75.0853 9.31043 75.3545 9.61855 75.3545 10.2383V12.544H76.1159V10.0471C76.1159 9.1298 75.6414 8.61272 74.7807 8.61272C74.1999 8.61272 73.8174 8.87126 73.6297 9.2998H73.573V8.68709H72.8399V12.544Z" fill="white"/>
<path d="M79.6229 7.7273V8.7048H79.0102V9.34584H79.6229V11.524C79.6229 12.2677 79.9594 12.5652 80.8058 12.5652C80.9546 12.5652 81.0962 12.5475 81.2202 12.5263V11.8923C81.1139 11.9029 81.0466 11.91 80.9298 11.91C80.5508 11.91 80.3844 11.7329 80.3844 11.3292V9.34584H81.2202V8.7048H80.3844V7.7273H79.6229Z" fill="white"/>
<path d="M82.2423 12.544H83.0038V10.2915C83.0038 9.70709 83.3509 9.31397 83.9742 9.31397C84.5125 9.31397 84.7994 9.62563 84.7994 10.2419V12.544H85.5609V10.0542C85.5609 9.13688 85.0544 8.61626 84.2327 8.61626C83.6519 8.61626 83.2446 8.8748 83.0569 9.30688H82.9967V7.18188H82.2423V12.544Z" fill="white"/>
<path d="M88.3078 9.26084C88.8709 9.26084 89.2392 9.65397 89.2569 10.2596H87.309C87.3515 9.65751 87.7446 9.26084 88.3078 9.26084ZM89.2534 11.5027C89.1117 11.8038 88.7965 11.9702 88.3361 11.9702C87.7269 11.9702 87.3338 11.5417 87.309 10.8652V10.8227H90.0326V10.5571C90.0326 9.34584 89.3844 8.61272 88.3113 8.61272C87.224 8.61272 86.5334 9.39543 86.5334 10.6279C86.5334 11.8604 87.2099 12.6183 88.3149 12.6183C89.1967 12.6183 89.813 12.1933 89.9865 11.5027H89.2534Z" fill="white"/>
<path d="M21.7384 17.3233C21.7569 15.8889 22.5272 14.5316 23.7493 13.7802C22.9783 12.6791 21.687 11.981 20.3435 11.939C18.9106 11.7886 17.5214 12.7965 16.7912 12.7965C16.0468 12.7965 14.9226 11.9539 13.7119 11.9788C12.1339 12.0298 10.6628 12.927 9.89502 14.3066C8.24468 17.1639 9.47569 21.3632 11.0566 23.6729C11.8475 24.8038 12.7719 26.0672 13.9815 26.0224C15.1651 25.9733 15.6072 25.2676 17.0359 25.2676C18.4514 25.2676 18.8661 26.0224 20.1002 25.9939C21.3703 25.9733 22.1705 24.8579 22.9337 23.7162C23.502 22.9104 23.9393 22.0197 24.2295 21.0773C22.7369 20.446 21.7401 18.9439 21.7384 17.3233Z" fill="white"/>
<path d="M19.4073 10.4201C20.0999 9.58874 20.441 8.52022 20.3584 7.44141C19.3004 7.55253 18.3231 8.05818 17.6213 8.85761C16.9349 9.63869 16.5778 10.6884 16.6453 11.726C17.7037 11.7369 18.7441 11.2449 19.4073 10.4201Z" fill="white"/>
<path d="M4.92278 33.6005L4.5401 34.5244L4.92278 33.6005ZM1.13441 29.8121L2.05829 29.4294L1.13441 29.8121ZM102.469 29.8121L103.393 30.1948L102.469 29.8121ZM98.6804 33.6005L99.063 34.5244L98.6804 33.6005ZM98.6804 0.532843L98.2977 1.45672L98.6804 0.532843ZM102.469 4.32122L103.393 3.93853L102.469 4.32122ZM11.1016 1H92.5015V-1H11.1016V1ZM102.002 10.5V23.6333H104.002V10.5H102.002ZM92.5016 33.1333H11.1016V35.1333H92.5016V33.1333ZM1.60156 23.6333V10.5H-0.398438V23.6333H1.60156ZM11.1016 33.1333C9.45709 33.1333 8.27381 33.1328 7.33955 33.069C6.41426 33.0059 5.8065 32.8841 5.30546 32.6766L4.5401 34.5244C5.32545 34.8497 6.17629 34.9943 7.2034 35.0644C8.22154 35.1339 9.48446 35.1333 11.1016 35.1333V33.1333ZM-0.398438 23.6333C-0.398438 25.2504 -0.398979 26.5134 -0.329513 27.5315C-0.259433 28.5586 -0.114779 29.4094 0.210526 30.1948L2.05829 29.4294C1.85075 28.9284 1.72898 28.3206 1.66585 27.3953C1.6021 26.4611 1.60156 25.2778 1.60156 23.6333H-0.398438ZM5.30546 32.6766C3.83529 32.0676 2.66725 30.8996 2.05829 29.4294L0.210526 30.1948C1.02248 32.155 2.57987 33.7124 4.5401 34.5244L5.30546 32.6766ZM102.002 23.6333C102.002 25.2778 102.001 26.4611 101.937 27.3953C101.874 28.3206 101.752 28.9284 101.545 29.4294L103.393 30.1948C103.718 29.4094 103.863 28.5586 103.933 27.5315C104.002 26.5134 104.002 25.2504 104.002 23.6333H102.002ZM92.5016 35.1333C94.1187 35.1333 95.3816 35.1339 96.3997 35.0644C97.4268 34.9943 98.2777 34.8497 99.063 34.5244L98.2977 32.6766C97.7966 32.8841 97.1889 33.0059 96.2636 33.069C95.3293 33.1328 94.146 33.1333 92.5016 33.1333V35.1333ZM101.545 29.4294C100.936 30.8996 99.7678 32.0676 98.2977 32.6766L99.063 34.5244C101.023 33.7124 102.581 32.155 103.393 30.1948L101.545 29.4294ZM92.5015 1C94.146 1 95.3293 1.00054 96.2636 1.06429C97.1889 1.12742 97.7966 1.24918 98.2977 1.45672L99.063 -0.391036C98.2777 -0.716341 97.4268 -0.860996 96.3997 -0.931075C95.3816 -1.00054 94.1187 -1 92.5015 -1V1ZM104.002 10.5C104.002 8.88289 104.002 7.61997 103.933 6.60184C103.863 5.57473 103.718 4.72389 103.393 3.93853L101.545 4.7039C101.752 5.20494 101.874 5.8127 101.937 6.73798C102.001 7.67225 102.002 8.85552 102.002 10.5H104.002ZM98.2977 1.45672C99.7678 2.06569 100.936 3.23373 101.545 4.7039L103.393 3.93853C102.581 1.97831 101.023 0.420915 99.063 -0.391036L98.2977 1.45672ZM11.1016 -1C9.48445 -1 8.22153 -1.00054 7.2034 -0.931075C6.17629 -0.860996 5.32545 -0.716341 4.5401 -0.391036L5.30546 1.45672C5.8065 1.24918 6.41426 1.12742 7.33954 1.06429C8.27381 1.00054 9.45708 1 11.1016 1V-1ZM1.60156 10.5C1.60156 8.85553 1.6021 7.67225 1.66585 6.73798C1.72898 5.8127 1.85075 5.20494 2.05829 4.7039L0.210526 3.93853C-0.114779 4.72389 -0.259433 5.57473 -0.329513 6.60184C-0.398979 7.61997 -0.398438 8.88289 -0.398438 10.5H1.60156ZM4.5401 -0.391036C2.57987 0.420915 1.02248 1.97831 0.210526 3.93853L2.05829 4.7039C2.66725 3.23373 3.83529 2.06569 5.30546 1.45672L4.5401 -0.391036Z" fill="#A6A6A6"/>
</svg>
